<svg xmlns="http://www.w3.org/2000/svg" viewBox="0 0 54 54">
<circle fill="#FFF" cx="27" cy="27" r="27"/>
<path fill="#6366F1" d="M21.5,16.1c-7.2,0,-11.7,3.6,-13.5,10.8c2.7,-3.6,5.9,-4.9,9.4,-4.1c2.1,0.5,3.5,2,5.1,3.7c2.6,2.7,5.7,5.8,12.4,5.8c7.2,0,11.7,-3.6,13.5,-10.8c-2.7,3.6,-5.8,4.9,-9.4,4.1c-2.1,-0.5,-3.5,-2,-5.1,-3.7c-2.6,-2.7,-5.7,-5.8,-12.4,-5.8z"/>
<path fill="#C7D2FE" opacity="0.75" d="M19,21.7c-7.2,0,-11.7,3.6,-13.5,10.8c2.7,-3.6,5.9,-4.9,9.4,-4.1c2.1,0.5,3.5,2,5.1,3.7c2.6,2.7,5.7,5.8,12.4,5.8c7.2,0,11.7,-3.6,13.5,-10.8c-2.7,3.6,-5.9,4.9,-9.4,4c-2.1,-0.5,-3.5,-2,-5.1,-3.7c-2.6,-2.6,-5.7,-5.7,-12.4,-5.7z"/>
</svg>